<?xml version="1.0" encoding="UTF-8" standalone="no"?>
<!DOCTYPE svg PUBLIC "-//W3C//DTD SVG 1.1//EN" "http://www.w3.org/Graphics/SVG/1.1/DTD/svg11.dtd">
<svg width="100%" height="100%" viewBox="0 0 24 24" version="1.1" xmlns="http://www.w3.org/2000/svg" xmlns:xlink="http://www.w3.org/1999/xlink" xml:space="preserve" xmlns:serif="http://www.serif.com/" style="fill-rule:evenodd;clip-rule:evenodd;stroke-linejoin:round;stroke-miterlimit:2;">
    <path d="M14,12C14,13.103 13.104,14 12,14C10.897,14 10,13.103 10,12C10,10.897 10.897,10 12,10C13.104,10 14,10.897 14,12ZM24,12C24,18.627 18.627,24 12,24C5.373,24 0,18.627 0,12C0,5.373 5.373,0 12,0C18.627,0 24,5.373 24,12ZM9.205,19.507C7.035,18.694 5.312,16.967 4.506,14.793L3.486,14.92C4.382,17.548 6.454,19.624 9.078,20.526L9.205,19.507ZM9.465,17.43C8.194,16.834 7.166,15.806 6.57,14.534L5.529,14.664C6.238,16.385 7.613,17.761 9.336,18.471L9.465,17.43ZM16,12C16,9.791 14.209,8 12,8C9.791,8 8,9.791 8,12C8,14.209 9.791,16 12,16C14.209,16 16,14.209 16,12ZM18.473,9.335C17.762,7.613 16.387,6.238 14.666,5.528L14.535,6.569C15.806,7.165 16.834,8.193 17.431,9.465L18.473,9.335ZM20.5,9.082C19.598,6.472 17.531,4.41 14.918,3.514L14.789,4.533C16.951,5.341 18.666,7.053 19.48,9.21L20.5,9.082Z" style="fill:white;fill-rule:nonzero;"/>
</svg>
