<?xml version="1.0" encoding="UTF-8" standalone="no"?>
<!DOCTYPE svg PUBLIC "-//W3C//DTD SVG 1.1//EN" "http://www.w3.org/Graphics/SVG/1.1/DTD/svg11.dtd">
<svg width="100%" height="100%" viewBox="0 0 2615 1516" version="1.1" xmlns="http://www.w3.org/2000/svg" xmlns:xlink="http://www.w3.org/1999/xlink" xml:space="preserve" xmlns:serif="http://www.serif.com/" style="fill-rule:evenodd;clip-rule:evenodd;stroke-linejoin:round;stroke-miterlimit:2;">
    <g transform="matrix(1,0,0,1,-1643.25,-914.483)">
        <g transform="matrix(0.802175,0,0,0.802175,161.918,333.785)">
            <g transform="matrix(1041.67,0,0,1041.67,2921.28,1453.07)">
                <path d="M0.209,-0.517L0.004,-0.517L0.004,-0.7L0.65,-0.7L0.65,-0.517L0.445,-0.517L0.445,-0L0.209,-0L0.209,-0.517Z" style="fill:white;fill-rule:nonzero;"/>
            </g>
            <g transform="matrix(1041.67,0,0,1041.67,3602.53,1453.07)">
                <path d="M0.747,-0.7L0.747,-0L0.511,-0L0.511,-0.258L0.293,-0.258L0.293,-0L0.057,-0L0.057,-0.7L0.293,-0.7L0.293,-0.452L0.511,-0.452L0.511,-0.7L0.747,-0.7Z" style="fill:white;fill-rule:nonzero;"/>
            </g>
            <g transform="matrix(1041.67,0,0,1041.67,4440.03,1453.07)">
                <path d="M0.639,-0.178L0.639,-0L0.057,-0L0.057,-0.7L0.626,-0.7L0.626,-0.522L0.289,-0.522L0.289,-0.44L0.585,-0.44L0.585,-0.27L0.289,-0.27L0.289,-0.178L0.639,-0.178Z" style="fill:white;fill-rule:nonzero;"/>
            </g>
        </g>
        <g transform="matrix(0.802175,0,0,0.802175,225.928,527)">
            <g transform="matrix(1041.67,0,0,1041.67,1713.35,2059.26)">
                <path d="M0.617,-0.366C0.658,-0.351 0.69,-0.328 0.713,-0.299C0.736,-0.27 0.747,-0.234 0.747,-0.193C0.747,-0.132 0.722,-0.084 0.671,-0.051C0.62,-0.017 0.547,-0 0.451,-0L0.057,-0L0.057,-0.7L0.431,-0.7C0.524,-0.7 0.595,-0.683 0.643,-0.65C0.69,-0.617 0.714,-0.572 0.714,-0.517C0.714,-0.484 0.706,-0.455 0.69,-0.429C0.673,-0.403 0.649,-0.382 0.617,-0.366ZM0.289,-0.535L0.289,-0.431L0.399,-0.431C0.45,-0.431 0.476,-0.448 0.476,-0.483C0.476,-0.518 0.45,-0.535 0.399,-0.535L0.289,-0.535ZM0.431,-0.165C0.483,-0.165 0.509,-0.183 0.509,-0.22C0.509,-0.257 0.483,-0.275 0.431,-0.275L0.289,-0.275L0.289,-0.165L0.431,-0.165Z" style="fill:white;fill-rule:nonzero;"/>
            </g>
            <g transform="matrix(1041.67,0,0,1041.67,2518.56,2059.26)">
                <path d="M0.534,-0.122L0.268,-0.122L0.221,-0L-0.019,-0L0.287,-0.7L0.519,-0.7L0.825,-0L0.581,-0L0.534,-0.122ZM0.469,-0.292L0.401,-0.468L0.333,-0.292L0.469,-0.292Z" style="fill:white;fill-rule:nonzero;"/>
            </g>
            <g transform="matrix(1041.67,0,0,1041.67,3358.15,2059.26)">
                <path d="M0.747,-0.7L0.747,-0L0.553,-0L0.287,-0.318L0.287,-0L0.057,-0L0.057,-0.7L0.251,-0.7L0.517,-0.382L0.517,-0.7L0.747,-0.7Z" style="fill:white;fill-rule:nonzero;"/>
            </g>
            <g transform="matrix(1041.67,0,0,1041.67,4195.65,2059.26)">
                <path d="M0.057,-0.7L0.402,-0.7C0.48,-0.7 0.549,-0.686 0.609,-0.658C0.668,-0.629 0.715,-0.589 0.748,-0.536C0.781,-0.483 0.797,-0.421 0.797,-0.35C0.797,-0.279 0.781,-0.217 0.748,-0.164C0.715,-0.111 0.668,-0.071 0.609,-0.043C0.549,-0.014 0.48,-0 0.402,-0L0.057,-0L0.057,-0.7ZM0.392,-0.184C0.443,-0.184 0.483,-0.199 0.514,-0.228C0.544,-0.257 0.559,-0.297 0.559,-0.35C0.559,-0.403 0.544,-0.444 0.514,-0.472C0.483,-0.501 0.443,-0.516 0.392,-0.516L0.293,-0.516L0.293,-0.184L0.392,-0.184Z" style="fill:white;fill-rule:nonzero;"/>
            </g>
        </g>
        <g transform="matrix(1,0,0,1,-5.68781,16.9437)">
            <g transform="matrix(242.68,0,0,242.68,1647.97,2411.38)">
                <path d="M0.256,-0.654L0.004,-0.654L0.004,-0.7L0.559,-0.7L0.559,-0.654L0.307,-0.654L0.307,-0L0.256,-0L0.256,-0.654Z" style="fill:white;fill-rule:nonzero;"/>
            </g>
            <g transform="matrix(242.68,0,0,242.68,1784.6,2411.38)">
                <path d="M0.692,-0.7L0.692,-0L0.641,-0L0.641,-0.333L0.173,-0.333L0.173,-0L0.122,-0L0.122,-0.7L0.173,-0.7L0.173,-0.378L0.641,-0.378L0.641,-0.7L0.692,-0.7Z" style="fill:white;fill-rule:nonzero;"/>
            </g>
            <g transform="matrix(242.68,0,0,242.68,1982.14,2411.38)">
                <path d="M0.605,-0.046L0.605,-0L0.122,-0L0.122,-0.7L0.59,-0.7L0.59,-0.654L0.173,-0.654L0.173,-0.378L0.546,-0.378L0.546,-0.333L0.173,-0.333L0.173,-0.046L0.605,-0.046Z" style="fill:white;fill-rule:nonzero;"/>
            </g>
            <g transform="matrix(242.68,0,0,242.68,2206.86,2411.38)">
                <path d="M0.555,-0.197L0.149,-0.197L0.06,-0L0.005,-0L0.327,-0.7L0.378,-0.7L0.7,-0L0.645,-0L0.555,-0.197ZM0.536,-0.24L0.352,-0.644L0.169,-0.24L0.536,-0.24Z" style="fill:white;fill-rule:nonzero;"/>
            </g>
            <g transform="matrix(242.68,0,0,242.68,2377.95,2411.38)">
                <path d="M0.122,-0.7L0.173,-0.7L0.173,-0.046L0.576,-0.046L0.576,-0L0.122,-0L0.122,-0.7Z" style="fill:white;fill-rule:nonzero;"/>
            </g>
            <g transform="matrix(242.68,0,0,242.68,2519.92,2411.38)">
                <path d="M0.538,-0.361C0.588,-0.352 0.626,-0.332 0.653,-0.302C0.679,-0.272 0.692,-0.233 0.692,-0.185C0.692,-0.126 0.67,-0.08 0.627,-0.048C0.584,-0.016 0.519,-0 0.434,-0L0.122,-0L0.122,-0.7L0.414,-0.7C0.49,-0.7 0.549,-0.685 0.592,-0.654C0.634,-0.623 0.655,-0.578 0.655,-0.521C0.655,-0.481 0.645,-0.447 0.624,-0.42C0.603,-0.393 0.574,-0.373 0.538,-0.361ZM0.173,-0.656L0.173,-0.377L0.412,-0.377C0.473,-0.377 0.521,-0.389 0.554,-0.412C0.587,-0.436 0.603,-0.471 0.603,-0.517C0.603,-0.562 0.587,-0.597 0.554,-0.621C0.521,-0.644 0.473,-0.656 0.412,-0.656L0.173,-0.656ZM0.434,-0.044C0.502,-0.044 0.554,-0.056 0.589,-0.08C0.624,-0.103 0.641,-0.14 0.641,-0.189C0.641,-0.238 0.624,-0.275 0.589,-0.298C0.554,-0.321 0.502,-0.333 0.434,-0.333L0.173,-0.333L0.173,-0.044L0.434,-0.044Z" style="fill:white;fill-rule:nonzero;"/>
            </g>
            <g transform="matrix(242.68,0,0,242.68,2702.41,2411.38)">
                <path d="M0.396,0.005C0.307,0.005 0.238,-0.021 0.19,-0.072C0.141,-0.123 0.116,-0.198 0.116,-0.297L0.116,-0.7L0.167,-0.7L0.167,-0.299C0.167,-0.213 0.187,-0.149 0.226,-0.106C0.265,-0.063 0.322,-0.042 0.397,-0.042C0.471,-0.042 0.528,-0.063 0.567,-0.106C0.606,-0.149 0.626,-0.213 0.626,-0.299L0.626,-0.7L0.677,-0.7L0.677,-0.297C0.677,-0.198 0.652,-0.123 0.603,-0.072C0.554,-0.021 0.485,0.005 0.396,0.005Z" style="fill:white;fill-rule:nonzero;"/>
            </g>
            <g transform="matrix(242.68,0,0,242.68,2894.86,2411.38)">
                <path d="M0.784,-0L0.783,-0.599L0.49,-0.093L0.465,-0.093L0.172,-0.597L0.172,-0L0.122,-0L0.122,-0.7L0.165,-0.7L0.478,-0.159L0.791,-0.7L0.833,-0.7L0.834,-0L0.784,-0Z" style="fill:white;fill-rule:nonzero;"/>
            </g>
        </g>
        <g transform="matrix(1.06477,0,0,1,-106.734,0)">
            <rect x="1647.97" y="914.483" width="719.44" height="584.919" style="fill:white;"/>
        </g>
        <g transform="matrix(1.01062,0,0,0.504126,-51.0273,1156.42)">
            <rect x="3187.15" y="2344" width="1070.4" height="23.429" style="fill:white;"/>
        </g>
    </g>
</svg>
